<svg xmlns="http://www.w3.org/2000/svg" viewBox="0 0 120 120" fill="none" stroke="currentColor" stroke-width="1.6" stroke-linecap="round" stroke-linejoin="round">
<circle cx="60" cy="60" r="47"></circle><circle cx="60" cy="60" r="37"></circle><path d="m60 3 5 12-5-2-5 2Zm0 114 5-12-5 2-5-2ZM3 60l12-5-2 5 2 5Zm114 0-12-5 2 5-2 5Z"></path><path d="M35 80c18 11 49-2 40-16-5-8-25 0-27-12-2-10 15-22 30-14l8-8-1 15-8 8-11-2m12-13-2-10m-7 7-8-8M44 72c-25 3-25-17-10-26m8 18-12 2m29 16 4 10m9-17 12 3"></path><path d="m73 40 4 1M36 24l-7-7m62 0-7 7M24 84l-7 7m74 0-7-7"></path>
</svg>
